<svg xmlns="http://www.w3.org/2000/svg" xmlns:xlink="http://www.w3.org/1999/xlink" width="500" zoomAndPan="magnify" viewBox="0 0 375 374.999991" height="500" preserveAspectRatio="xMidYMid meet" version="1.2"><defs><clipPath id="e556865c3f"><path d="M 41 13.761719 L 334 13.761719 L 334 352 L 41 352 Z M 41 13.761719 "/></clipPath></defs><g id="8355cde0c2"><rect x="0" width="375" y="0" height="374.999991" style="fill:#ffffff;fill-opacity:1;stroke:none;"/><rect x="0" width="375" y="0" height="374.999991" style="fill:#000000;fill-opacity:1;stroke:none;"/><g clip-rule="nonzero" clip-path="url(#e556865c3f)"><path style=" stroke:none;fill-rule:nonzero;fill:#ffffff;fill-opacity:1;" d="M 45.324219 264.855469 L 187.46875 346.921875 L 329.613281 264.855469 L 329.613281 100.71875 L 187.46875 18.652344 L 45.324219 100.71875 Z M 187.46875 351.820312 L 41.082031 267.304688 L 41.082031 98.269531 L 187.46875 13.75 L 333.859375 98.269531 L 333.859375 267.304688 L 187.46875 351.820312 "/></g><path style="fill:none;stroke-width:7;stroke-linecap:butt;stroke-linejoin:miter;stroke:#ffffff;stroke-opacity:1;stroke-miterlimit:4;" d="M 0.00234901 3.499924 L 135.212825 3.500873 " transform="matrix(0.494025,0.562805,-0.562805,0.494025,46.089709,96.961033)"/><path style="fill:none;stroke-width:7;stroke-linecap:butt;stroke-linejoin:miter;stroke:#ffffff;stroke-opacity:1;stroke-miterlimit:4;" d="M -0.00161436 3.502058 L 135.58952 3.502647 " transform="matrix(0.540513,-0.519948,0.519948,0.540513,106.558891,173.008597)"/><path style="fill:none;stroke-width:7;stroke-linecap:butt;stroke-linejoin:miter;stroke:#ffffff;stroke-opacity:1;stroke-miterlimit:4;" d="M 0.00081803 3.501913 L 323.548933 3.49908 " transform="matrix(-0.00205794,-0.749997,0.749997,-0.00205794,179.041546,345.480477)"/><path style="fill:none;stroke-width:7;stroke-linecap:butt;stroke-linejoin:miter;stroke:#ffffff;stroke-opacity:1;stroke-miterlimit:4;" d="M 0.002442 3.498748 L 327.841005 3.498748 " transform="matrix(0,-0.75,0.75,0,188.317346,348.689332)"/><path style="fill:none;stroke-width:13;stroke-linecap:butt;stroke-linejoin:miter;stroke:#151514;stroke-opacity:1;stroke-miterlimit:4;" d="M 0.00235139 6.501523 L 24.872145 6.501523 " transform="matrix(0,-0.75,0.75,0,193.377765,351.904107)"/><path style="fill:none;stroke-width:7;stroke-linecap:butt;stroke-linejoin:miter;stroke:#ffffff;stroke-opacity:1;stroke-miterlimit:4;" d="M 0.00236745 3.498924 L 190.965922 3.498924 " transform="matrix(0.75,-0.000000000000000186,0.000000000000000186,0.75,190.947443,208.700026)"/><path style="fill:none;stroke-width:9;stroke-linecap:butt;stroke-linejoin:miter;stroke:#151514;stroke-opacity:1;stroke-miterlimit:4;" d="M 0.00102018 4.498341 L 24.876022 4.498341 " transform="matrix(-0.75,0.000000001309,-0.000000001309,-0.75,59.473421,100.440161)"/><path style="fill:none;stroke-width:7;stroke-linecap:butt;stroke-linejoin:miter;stroke:#151514;stroke-opacity:1;stroke-miterlimit:4;" d="M 0.00172737 3.497713 L 24.871521 3.497713 " transform="matrix(0,-0.75,0.75,0,183.82984,361.231764)"/></g></svg>